<svg width="123" height="112" viewBox="0 0 123 112" fill="none" xmlns="http://www.w3.org/2000/svg">
<g clip-path="url(#clip0_330_2608)">
<path d="M106.59 42.8285H66.7616C65.3123 42.8486 63.8843 42.48 62.6271 41.7614C61.37 41.0428 60.3299 40.0006 59.616 38.744L56.2141 32.5431C55.5007 31.2871 54.4604 30.2462 53.2028 29.5299C51.9452 28.8136 50.5169 28.4486 49.0685 28.4733H24.2891C23.2765 28.4357 22.2663 28.5974 21.3164 28.949C20.3664 29.3006 19.4955 29.8354 18.7532 30.5226C18.0109 31.2098 17.4118 32.0361 16.9903 32.9542C16.5688 33.8723 16.3331 34.8641 16.2968 35.8729V103.105C16.3741 105.142 17.259 107.064 18.7573 108.451C20.2556 109.838 22.245 110.577 24.2891 110.505H106.59C108.631 110.573 110.617 109.833 112.112 108.446C113.607 107.059 114.49 105.139 114.567 103.105V50.2133C114.49 48.181 113.607 46.2623 112.111 44.8779C110.616 43.4935 108.63 42.7566 106.59 42.8285Z" fill="white" stroke="#0C0C0C" stroke-width="2.97115" stroke-miterlimit="10" stroke-linecap="round"/>
<path d="M33.9142 11.2946L53.9843 3.68779C56.6893 2.68036 59.685 2.78307 62.3141 3.97332C64.9432 5.16356 66.991 7.34418 68.0081 10.0367L84.2157 52.4807C84.7311 53.8099 84.9785 55.2274 84.9439 56.6519C84.9092 58.0765 84.5932 59.4803 84.0137 60.7831C83.4343 62.086 82.6029 63.2624 81.567 64.2451C80.531 65.2278 79.3109 65.9974 77.9762 66.5102L50.3 77.0029C47.5911 78.01 44.5917 77.9056 41.9599 76.7126C39.3281 75.5197 37.2788 73.3354 36.2614 70.6392L23.1438 36.2756" fill="white"/>
<path d="M33.9142 11.2946L53.9843 3.68779C56.6893 2.68036 59.685 2.78307 62.3141 3.97332C64.9432 5.16356 66.991 7.34418 68.0081 10.0367L84.2157 52.4807C84.7311 53.8099 84.9785 55.2274 84.9439 56.6519C84.9092 58.0765 84.5932 59.4803 84.0137 60.7831C83.4343 62.086 82.6029 63.2624 81.567 64.2451C80.531 65.2278 79.3109 65.9974 77.9762 66.5102L50.3 77.0029C47.5911 78.01 44.5917 77.9056 41.9599 76.7126C39.3281 75.5197 37.2788 73.3354 36.2614 70.6392L23.1438 36.2756" stroke="#0C0C0C" stroke-width="2.97115" stroke-miterlimit="10"/>
<g clip-path="url(#clip1_330_2608)">
<path d="M58.3838 35.2237L55.4815 44.245C55.126 45.3502 54.346 46.2689 53.3131 46.799C52.2802 47.329 51.079 47.4271 49.9738 47.0716C48.8687 46.716 47.95 45.936 47.4199 44.9031C46.8898 43.8702 46.7918 42.669 47.1473 41.5639L50.0496 32.5425C50.2866 31.8057 50.8066 31.1933 51.4952 30.8399C52.1838 30.4865 52.9846 30.4211 53.7214 30.6582C54.4581 30.8952 55.0706 31.4152 55.424 32.1038C55.7774 32.7924 55.8427 33.5932 55.6057 34.33L52.697 43.3546C52.5785 43.723 52.3185 44.0293 51.9742 44.206C51.6299 44.3826 51.2295 44.4153 50.8611 44.2968C50.4927 44.1783 50.1865 43.9183 50.0098 43.574C49.8331 43.2297 49.8004 42.8293 49.9189 42.4609L52.6034 34.1332" stroke="#1BC47D" stroke-width="1.45833" stroke-linecap="round" stroke-linejoin="round"/>
</g>
<path d="M23.1438 36.2013L33.8993 11.2056L40.8815 29.4677L23.1438 36.2013Z" fill="white" stroke="#0C0C0C" stroke-width="2.97115" stroke-linecap="round" stroke-linejoin="round"/>
<path d="M26.6795 42.1355C25.4613 39.9453 27.0954 36.6154 29.6506 35.1059C29.7514 35.041 29.8288 34.9456 29.8716 34.8339C29.9143 34.7221 29.9202 34.5996 29.8883 34.4843C29.8435 34.3846 29.7665 34.3028 29.6696 34.2518C29.5726 34.2008 29.4614 34.1837 29.3535 34.2031C27.3698 34.6091 25.4802 35.3822 23.7826 36.4822C23.5773 36.6285 23.4039 36.8146 23.2727 37.0294C23.1416 37.2442 23.0553 37.4833 23.0192 37.7321C22.9831 37.9809 22.9979 38.2345 23.0628 38.4775C23.1276 38.7205 23.241 38.9479 23.3963 39.1461C24.3286 40.306 25.4362 41.3145 26.6795 42.1355Z" fill="#0C0C0C"/>
<path d="M84.6915 20.0146L105.044 26.8814C107.774 27.8164 110.019 29.793 111.286 32.3766C112.554 34.9602 112.74 37.9394 111.803 40.6595L97.1852 83.6658C96.2728 86.396 94.3102 88.654 91.7284 89.9442C89.1465 91.2344 86.1562 91.4513 83.4139 90.5474L55.3663 81.076C54.0116 80.6145 52.7616 79.8915 51.6877 78.9482C50.6138 78.005 49.7372 76.8601 49.108 75.5789C48.4788 74.2978 48.1094 72.9058 48.0208 71.4823C47.9323 70.0588 48.1264 68.6318 48.5921 67.2831L60.4767 32.4607" fill="white"/>
<path d="M84.6915 20.0146L105.044 26.8814C107.774 27.8164 110.019 29.793 111.286 32.3766C112.554 34.9602 112.74 37.9394 111.803 40.6595L97.1852 83.6658C96.2728 86.396 94.3102 88.654 91.7284 89.9442C89.1465 91.2344 86.1562 91.4513 83.4139 90.5474L55.3663 81.076C54.0116 80.6145 52.7616 79.8915 51.6877 78.9482C50.6138 78.005 49.7372 76.8601 49.108 75.5789C48.4788 74.2978 48.1094 72.9058 48.0208 71.4823C47.9323 70.0588 48.1264 68.6318 48.5921 67.2831L60.4767 32.4607" stroke="#0C0C0C" stroke-width="2.97115" stroke-miterlimit="10"/>
<path d="M60.4321 32.4461L84.6915 20L78.4076 38.5137L60.4321 32.4461Z" fill="white" stroke="#0C0C0C" stroke-width="2.97115" stroke-linecap="round" stroke-linejoin="round"/>
<g clip-path="url(#clip2_330_2608)">
<path d="M74.2066 60.7868C75.3047 61.201 76.5306 60.6466 76.9449 59.5486C77.3591 58.4505 76.8047 57.2245 75.7066 56.8103C74.6086 56.3961 73.3826 56.9505 72.9684 58.0485C72.5542 59.1466 73.1085 60.3726 74.2066 60.7868Z" stroke="#7B61FF" stroke-width="1.41667" stroke-linecap="round" stroke-linejoin="round"/>
<path d="M76.9448 59.5486L80.1948 50.9329L88.6478 52.6075L85.3977 61.2232" stroke="#7B61FF" stroke-width="1.41667" stroke-linecap="round" stroke-linejoin="round"/>
<path d="M82.6595 62.4614C83.7576 62.8756 84.9836 62.3212 85.3978 61.2231C85.812 60.1251 85.2576 58.8991 84.1596 58.4849C83.0615 58.0707 81.8355 58.625 81.4213 59.7231C81.0071 60.8212 81.5615 62.0471 82.6595 62.4614Z" stroke="#7B61FF" stroke-width="1.41667" stroke-linecap="round" stroke-linejoin="round"/>
</g>
<path d="M59.3624 39.2827C59.823 36.8113 63.225 35.2869 66.1813 35.7605C66.301 35.7687 66.4205 35.7406 66.5239 35.6798C66.6273 35.6191 66.7099 35.5286 66.7607 35.4202C66.7848 35.3156 66.7748 35.2061 66.732 35.1075C66.6892 35.009 66.616 34.9267 66.5229 34.8726C64.7312 33.9238 62.7754 33.3213 60.7589 33.0967C60.5086 33.0827 60.2582 33.1186 60.022 33.2022C59.7858 33.2858 59.5687 33.4154 59.3834 33.5835C59.1981 33.7515 59.0483 33.9547 58.9426 34.1811C58.837 34.4076 58.7777 34.6527 58.7683 34.9022C58.7428 36.3839 58.9431 37.8609 59.3624 39.2827Z" fill="#0C0C0C"/>
<path d="M112.078 66.419L64.1399 66.0245C61.0243 66.1993 57.9375 65.2308 55.2815 63.2449L50.8523 59.0845C48.0688 57.1053 44.8772 56.1346 41.6543 56.287L10.6499 56C5.14291 56 1.31907 58.1161 2.10156 60.8598L15.0053 106.033C15.773 108.776 19.966 111 24.3509 111H106.129C110.558 111 114.441 108.83 114.987 106.14L120.981 71.3505C121.306 68.6606 117.379 66.4548 112.078 66.419Z" fill="white" stroke="#0C0C0C" stroke-width="2.97115" stroke-miterlimit="10" stroke-linecap="round"/>
</g>
<defs>
<clipPath id="clip0_330_2608">
<rect width="122.649" height="112" fill="white"/>
</clipPath>
<clipPath id="clip1_330_2608">
<rect width="17.5" height="17.5" fill="white" transform="translate(40.7962 35.1929) rotate(-27.1667)"/>
</clipPath>
<clipPath id="clip2_330_2608">
<rect width="17" height="17" fill="white" transform="translate(75.4802 45.3691) rotate(20.6676)"/>
</clipPath>
</defs>
</svg>
