<svg width="96" height="82" viewBox="0 0 96 82" fill="none" xmlns="http://www.w3.org/2000/svg">
<g clip-path="url(#clip0_73_2256)">
<path d="M14.192 51.8567L1.99066 47.7811" stroke="white" stroke-width="2.47466" stroke-miterlimit="10" stroke-linecap="round"/>
<path d="M17.8524 47.0978L11.7518 35.8716" stroke="white" stroke-width="2.47466" stroke-miterlimit="10" stroke-linecap="round"/>
<path d="M45.7549 36.3265C45.7549 36.3265 45.9136 24.3193 45.9136 16.9613C45.9136 9.60327 52.7829 3.66068 61.2384 3.66068C69.6939 3.66068 76.5633 9.61547 76.5633 16.9613" stroke="white" stroke-width="7.42397" stroke-miterlimit="10" stroke-linecap="round"/>
<path d="M87.3126 36.9122H48C43.876 36.9122 40.5328 40.2557 40.5328 44.3801V73.3119C40.5328 77.4363 43.876 80.7798 48 80.7798H87.3126C91.4367 80.7798 94.7799 77.4363 94.7799 73.3119V44.3801C94.7799 40.2557 91.4367 36.9122 87.3126 36.9122Z" fill="white" stroke="white" stroke-width="2.47466" stroke-miterlimit="10" stroke-linecap="round"/>
<path d="M89.1428 36.9122H82.2003C79.0871 36.9122 76.5633 39.4362 76.5633 42.5497V75.1423C76.5633 78.2558 79.0871 80.7798 82.2003 80.7798H89.1428C92.2561 80.7798 94.7799 78.2558 94.7799 75.1423V42.5497C94.7799 39.4362 92.2561 36.9122 89.1428 36.9122Z" fill="#0C0C0C" stroke="white" stroke-width="2.47466" stroke-miterlimit="10" stroke-linecap="round"/>
<path d="M69.1448 36.9122H38.6293C34.5053 36.9122 31.1621 40.2557 31.1621 44.3801V73.3119C31.1621 77.4363 34.5053 80.7798 38.6293 80.7798H69.1448C73.2688 80.7798 76.612 77.4363 76.612 73.3119V44.3801C76.612 40.2557 73.2688 36.9122 69.1448 36.9122Z" fill="#0E70F1" stroke="white" stroke-width="2.47466" stroke-miterlimit="10" stroke-linecap="round"/>
<path d="M60.3356 53.2146C60.5538 54.3745 60.4548 55.5718 60.0489 56.6801C59.643 57.7884 58.9453 58.7665 58.0296 59.511C57.64 59.8401 57.3284 60.2517 57.1174 60.716C56.9064 61.1802 56.8012 61.6856 56.8094 62.1955V67.8208C56.8094 68.3451 56.6012 68.8479 56.2305 69.2186C55.8598 69.5893 55.3571 69.7976 54.8328 69.7976H52.9904C52.7304 69.7992 52.4726 69.7492 52.2321 69.6504C51.9915 69.5517 51.773 69.4061 51.5891 69.2223C51.4052 69.0384 51.2597 68.8198 51.161 68.5792C51.0622 68.3387 51.0122 68.0809 51.0138 67.8208V62.2565C51.0249 61.7409 50.9212 61.2292 50.7102 60.7586C50.4992 60.2879 50.1861 59.8701 49.7937 59.5354C48.969 58.8722 48.3167 58.0193 47.8927 57.0496C47.4687 56.0799 47.2855 55.022 47.3586 53.9662C47.4316 52.9103 47.7589 51.8878 48.3124 50.9857C48.8659 50.0836 49.6293 49.3288 50.5375 48.7855C51.4457 48.2422 52.4719 47.9266 53.5284 47.8655C54.5849 47.8044 55.6406 47.9997 56.6053 48.4347C57.5701 48.8697 58.4153 49.5316 59.0691 50.3639C59.7229 51.1962 60.1658 52.1742 60.36 53.2146H60.3356Z" fill="#0C0C0C"/>
<path d="M29.1489 67.8941C34.6746 67.8941 39.154 63.4142 39.154 57.8881C39.154 52.362 34.6746 47.8822 29.1489 47.8822C23.6233 47.8822 19.1439 52.362 19.1439 57.8881C19.1439 63.4142 23.6233 67.8941 29.1489 67.8941Z" stroke="white" stroke-width="2.47466" stroke-miterlimit="10"/>
<path d="M39.5933 57.8637L53.881 57.8881" stroke="white" stroke-width="2.47466" stroke-miterlimit="10" stroke-linecap="round"/>
</g>
<defs>
<clipPath id="clip0_73_2256">
<rect width="96" height="82" fill="white"/>
</clipPath>
</defs>
</svg>
