<svg width="40" height="40" viewBox="0 0 40 40" fill="none" xmlns="http://www.w3.org/2000/svg">
<path d="M25.8333 12.5H14.1667C13.2462 12.5 12.5 13.2462 12.5 14.1667V25.8333C12.5 26.7538 13.2462 27.5 14.1667 27.5H25.8333C26.7538 27.5 27.5 26.7538 27.5 25.8333V14.1667C27.5 13.2462 26.7538 12.5 25.8333 12.5Z" stroke="#0E70F1" stroke-width="1.66667" stroke-linecap="round" stroke-linejoin="round"/>
<path d="M27.5 22.4999L23.3333 18.3333L14.1666 27.4999" stroke="#0E70F1" stroke-width="1.66667" stroke-linecap="round" stroke-linejoin="round"/>
<path d="M17.0834 18.3333C17.7737 18.3333 18.3334 17.7736 18.3334 17.0833C18.3334 16.3929 17.7737 15.8333 17.0834 15.8333C16.393 15.8333 15.8334 16.3929 15.8334 17.0833C15.8334 17.7736 16.393 18.3333 17.0834 18.3333Z" stroke="#0E70F1" stroke-width="1.66667" stroke-linecap="round" stroke-linejoin="round"/>
</svg>
