<svg width="248" height="297" viewBox="0 0 248 297" fill="none" xmlns="http://www.w3.org/2000/svg">
<g clip-path="url(#clip0_82_784)">
<path d="M214.726 186.655C214.726 186.655 214.021 167.401 233.472 169.029C252.924 170.656 248.597 196.418 234.951 184.92C221.305 173.422 238.356 151.863 238.356 151.863" stroke="#0C0C0C" stroke-width="2.71489" stroke-linecap="round" stroke-linejoin="round"/>
<path d="M125.173 219.767C118.16 226.777 91.7233 227.482 85.4971 219.767C83.0013 216.689 85.4971 203.943 85.4971 203.943C85.4971 198.685 87.586 193.641 91.3047 189.921C95.0234 186.201 100.068 184.11 105.328 184.106C110.592 184.106 115.639 186.196 119.361 189.916C123.083 193.637 125.173 198.682 125.173 203.943C125.173 203.943 127.995 216.947 125.173 219.767Z" fill="white" stroke="#0C0C0C" stroke-width="2.71489" stroke-miterlimit="10"/>
<path d="M106.793 61.2467C94.9516 68.0263 91.1128 84.6092 98.5733 97.7073L106.793 61.2467Z" fill="white"/>
<path d="M106.793 61.2467C94.9516 68.0263 91.1128 84.6092 98.5733 97.7073" stroke="#0C0C0C" stroke-width="2.71489" stroke-miterlimit="10" stroke-linecap="round"/>
<path d="M124.332 73.8297L106.929 61.1925C106.683 61.4736 106.452 61.7679 106.237 62.0739C98.2478 73.0839 101.652 89.1922 113.86 98.0599" fill="white"/>
<path d="M124.332 73.8297L106.929 61.1925C106.683 61.4736 106.452 61.7679 106.237 62.0739C98.2478 73.0839 101.652 89.1922 113.86 98.0599" stroke="#0C0C0C" stroke-width="2.71489" stroke-linecap="round" stroke-linejoin="round"/>
<path d="M218.565 166.737V124.175C218.565 91.0381 191.692 64.1755 158.542 64.1755H151.76C118.61 64.1755 91.7369 91.0381 91.7369 124.175V166.737C91.7369 199.874 118.61 226.736 151.76 226.736H158.542C191.692 226.736 218.565 199.874 218.565 166.737Z" fill="white" stroke="#0C0C0C" stroke-width="2.71489" stroke-miterlimit="10" stroke-linecap="round"/>
<path d="M181.52 61.7349C195.085 62.7925 205.652 76.2024 204.485 91.2395L181.52 61.7349Z" fill="white"/>
<path d="M181.52 61.7349C195.085 62.7925 205.652 76.2024 204.485 91.2395" stroke="#0C0C0C" stroke-width="2.71489" stroke-miterlimit="10" stroke-linecap="round"/>
<path d="M170.994 80.5821L181.371 61.7484C181.711 61.8965 182.041 62.064 182.361 62.2501C194.298 68.8127 198.069 84.8533 190.798 98.0599" fill="white"/>
<path d="M170.994 80.5821L181.371 61.7484C181.711 61.8965 182.041 62.064 182.361 62.2501C194.298 68.8127 198.069 84.8533 190.798 98.0599" stroke="#0C0C0C" stroke-width="2.71489" stroke-linecap="round" stroke-linejoin="round"/>
<path d="M166.138 119.985L165.514 130.439C165.472 132.029 164.801 133.537 163.65 134.635C162.499 135.732 160.96 136.33 159.369 136.297H158.935C158.148 136.225 157.382 135.999 156.683 135.631C155.983 135.262 155.364 134.759 154.859 134.151C154.355 133.542 153.976 132.84 153.745 132.084C153.513 131.328 153.433 130.534 153.51 129.748L153.659 127.253L159.858 124.893L153.984 121.788L154.134 119.294C154.173 117.705 154.84 116.197 155.989 115.099C157.138 114.001 158.676 113.403 160.265 113.436H160.699C162.289 113.584 163.755 114.357 164.775 115.585C165.795 116.813 166.285 118.396 166.138 119.985Z" fill="#0C0C0C"/>
<path d="M129.066 117.761L128.442 128.202C128.403 129.794 127.735 131.306 126.583 132.406C125.431 133.506 123.89 134.106 122.298 134.073H121.877C121.09 134 120.326 133.772 119.627 133.403C118.928 133.035 118.309 132.532 117.805 131.923C117.301 131.315 116.922 130.613 116.69 129.858C116.458 129.104 116.377 128.31 116.451 127.524L116.601 125.029L122.813 122.67L116.926 119.565L117.075 117.07C117.093 116.278 117.267 115.497 117.587 114.773C117.906 114.048 118.366 113.394 118.94 112.847C119.513 112.3 120.188 111.872 120.928 111.587C121.667 111.302 122.455 111.165 123.247 111.185H123.681C124.467 111.263 125.23 111.495 125.925 111.868C126.621 112.241 127.237 112.747 127.737 113.358C128.237 113.968 128.612 114.672 128.84 115.427C129.068 116.183 129.145 116.976 129.066 117.761Z" fill="#0C0C0C"/>
<path d="M151.746 114.914C151.746 114.914 161.445 114.914 162.598 107.443" stroke="#0C0C0C" stroke-width="2.71489" stroke-miterlimit="10" stroke-linecap="round"/>
<path d="M123.396 103.212C123.396 103.212 113.711 102.656 112.07 109.992" stroke="#0C0C0C" stroke-width="2.71489" stroke-miterlimit="10" stroke-linecap="round"/>
<path d="M113.209 146.1C113.209 143.226 114.959 140.5 117.279 138.195C122.165 133.511 128.671 130.893 135.442 130.887L144.028 130.765C150.795 130.578 157.373 133.006 162.394 137.544C164.795 139.795 166.667 142.466 166.708 145.341C166.735 147.3 166.375 149.244 165.65 151.064C164.925 152.884 163.849 154.543 162.482 155.947C161.115 157.351 159.485 158.472 157.685 159.246C155.885 160.021 153.95 160.433 151.99 160.459L128.307 160.785C124.359 160.832 120.553 159.313 117.723 156.56C114.893 153.808 113.27 150.046 113.209 146.1Z" fill="white" stroke="#0C0C0C" stroke-width="2.71489" stroke-miterlimit="10"/>
<path d="M124.766 148.053C123.41 145.056 124.102 141.883 126.218 140.961C128.334 140.039 131.101 141.72 132.403 144.717C133.705 147.714 130.952 151.808 130.952 151.808C130.952 151.808 126.069 151.049 124.766 148.053Z" fill="#0C0C0C"/>
<path d="M155.124 147.483C156.317 144.446 155.558 141.3 153.415 140.446C151.271 139.592 148.559 141.395 147.365 144.446C146.171 147.497 149.088 151.469 149.088 151.469C149.088 151.469 153.93 150.507 155.124 147.483Z" fill="#0C0C0C"/>
<path d="M163.52 44.5035L147.365 71.8931C147.03 72.452 146.556 72.9145 145.989 73.2357C145.422 73.5569 144.781 73.7258 144.13 73.7258C143.478 73.7258 142.837 73.5569 142.27 73.2357C141.703 72.9145 141.229 72.452 140.895 71.8931C140.895 71.8931 121.077 43.1476 121.077 32.802C121.072 29.2789 121.882 25.8025 123.444 22.6443C125.006 19.4862 127.277 16.7318 130.081 14.5967C132.884 12.4615 136.144 11.0032 139.604 10.336C143.065 9.66874 146.633 9.81055 150.03 10.7503C153.426 11.69 156.56 13.4022 159.185 15.7531C161.81 18.104 163.855 21.0299 165.161 24.302C166.468 27.5741 166.999 31.1038 166.715 34.6154C166.43 38.1269 165.337 41.525 163.52 44.5442V44.5035Z" fill="#0E70F1" stroke="#0C0C0C" stroke-width="2.71489" stroke-linecap="round" stroke-linejoin="round"/>
<path d="M143.933 44.49C150.428 44.49 155.693 39.2267 155.693 32.7342C155.693 26.2416 150.428 20.9784 143.933 20.9784C137.438 20.9784 132.173 26.2416 132.173 32.7342C132.173 39.2267 137.438 44.49 143.933 44.49Z" fill="white" stroke="#0C0C0C" stroke-width="2.71489" stroke-linecap="round" stroke-linejoin="round"/>
<path d="M143.92 79.9042C138.968 79.9042 134.94 78.2364 134.94 76.1754" stroke="#0C0C0C" stroke-width="2.71489" stroke-linecap="round" stroke-linejoin="round"/>
<path d="M152.913 76.1754C152.913 78.2364 148.843 79.9042 143.919 79.9042" stroke="#0C0C0C" stroke-width="2.71489" stroke-linecap="round" stroke-linejoin="round"/>
<path d="M208.942 28.9866C209.827 27.9002 211.006 27.0907 212.337 26.6544C213.908 26.111 215.593 25.9889 217.225 26.3002C219.131 26.6425 220.917 27.467 222.414 28.6953C223.852 29.7607 225.031 31.137 225.862 32.7215C226.577 34.1057 226.899 35.6597 226.791 37.2141C226.682 38.6574 226.146 40.0358 225.251 41.1741C224.623 42.0229 223.789 42.6972 222.827 43.1327C221.971 43.5218 221.059 43.7743 220.125 43.8812C219.215 43.9892 217.657 44.1075 215.418 44.2533C214.911 44.2965 214.408 44.3704 213.911 44.4747C213.556 44.5276 213.209 44.6272 212.88 44.7709C212.618 44.8869 212.371 45.0342 212.144 45.2097C211.916 45.376 211.546 45.6661 211.012 46.1014C210.814 46.3245 210.573 46.5061 210.303 46.6358C210.034 46.7654 209.742 46.8406 209.444 46.857C209.145 46.8734 208.847 46.8306 208.565 46.7312C208.284 46.6318 208.024 46.4777 207.803 46.2778C207.538 46.0827 207.315 45.8365 207.148 45.5538C206.98 45.2711 206.871 44.9576 206.827 44.632C206.794 44.2577 206.84 43.8805 206.96 43.5244C207.08 43.1684 207.274 42.8413 207.527 42.5637C208.663 41.0294 210.353 39.9978 212.237 39.6878C213.083 39.5581 214.177 39.4552 215.499 39.3573C216.821 39.2595 217.503 39.2321 218.039 39.1699C218.582 39.0989 219.112 38.9553 219.616 38.7429C220.12 38.5272 220.559 38.1811 220.886 37.7402C221.213 37.3374 221.449 36.8683 221.577 36.3654C221.705 35.8624 221.723 35.3377 221.628 34.8276C221.418 33.7009 220.784 32.698 219.855 32.0254C219.409 31.6219 218.884 31.3143 218.314 31.1219C217.744 30.9294 217.14 30.8561 216.54 30.9065C215.291 31.1661 214.111 31.6845 213.076 32.4282C212.615 32.8785 212.01 33.1507 211.368 33.1962C210.726 33.2416 210.088 33.0574 209.57 32.6762C209.284 32.4675 209.044 32.2015 208.867 31.8952C208.69 31.589 208.578 31.2491 208.539 30.8973C208.467 30.5685 208.466 30.2281 208.535 29.8987C208.605 29.5693 208.743 29.2583 208.942 28.9866ZM202.995 52.7419C202.368 52.2534 201.938 51.5543 201.786 50.7736C201.714 50.3572 201.735 49.93 201.848 49.5227C201.961 49.1154 202.163 48.7382 202.44 48.4181C202.673 48.0927 202.97 47.8183 203.314 47.6117C203.657 47.4052 204.038 47.2707 204.435 47.2167C204.841 47.167 205.252 47.2008 205.644 47.3158C206.036 47.4309 206.4 47.6248 206.715 47.8857C207.04 48.1199 207.312 48.4201 207.513 48.7666C207.714 49.1131 207.839 49.4982 207.881 49.8967C207.932 50.2948 207.901 50.6991 207.79 51.0849C207.679 51.4707 207.491 51.83 207.236 52.1408C206.996 52.4828 206.683 52.7682 206.321 52.9771C205.958 53.186 205.554 53.3134 205.138 53.3504C204.373 53.395 203.618 53.1656 203.008 52.7034L202.995 52.7419Z" fill="#0C0C0C"/>
<path d="M191.12 11.8821C190.877 11.0268 190.877 10.1206 191.12 9.26523C191.406 8.23338 191.964 7.29697 192.735 6.55339C193.608 5.68832 194.693 5.06661 195.882 4.75C196.97 4.39242 198.126 4.29495 199.259 4.46531C200.256 4.58871 201.197 4.99315 201.972 5.63138C202.688 6.21136 203.209 6.99695 203.464 7.88217C203.672 8.52074 203.719 9.20088 203.6 9.86183C203.475 10.4434 203.269 11.0046 202.989 11.5296C202.704 12.0313 202.203 12.8855 201.457 14.1059C201.276 14.3871 201.117 14.6818 200.982 14.9872C200.877 15.1935 200.8 15.4122 200.751 15.6381C200.738 15.8186 200.738 15.9998 200.751 16.1804C200.751 16.3431 200.751 16.655 200.751 17.0889C200.793 17.2741 200.798 17.4658 200.765 17.6529C200.733 17.84 200.663 18.0188 200.561 18.1789C200.459 18.339 200.326 18.4774 200.17 18.5858C200.014 18.6943 199.838 18.7707 199.652 18.8109C199.455 18.877 199.247 18.9028 199.039 18.8865C198.832 18.8702 198.63 18.8122 198.445 18.716C198.24 18.5973 198.061 18.4371 197.921 18.2457C197.781 18.0543 197.682 17.8358 197.631 17.6041C197.426 16.9891 197.352 16.3377 197.414 15.6923C197.47 15.1415 197.622 14.6046 197.862 14.1059C198.172 13.4862 198.516 12.8842 198.893 12.3025C199.286 11.6787 199.571 11.2177 199.734 10.9466C199.899 10.6452 200.018 10.3207 200.087 9.9839C200.181 9.65152 200.181 9.29935 200.087 8.96697C199.999 8.65003 199.843 8.356 199.629 8.10545C199.416 7.8549 199.151 7.65383 198.852 7.51612C198.163 7.24319 197.402 7.21116 196.693 7.42534C195.984 7.63951 195.368 8.08728 194.946 8.69577C194.614 9.43277 194.447 10.2333 194.457 11.0415C194.515 11.4444 194.428 11.8547 194.212 12.1998C193.996 12.5448 193.665 12.8022 193.277 12.9262C193.054 12.9995 192.818 13.0253 192.585 13.0019C192.351 12.9786 192.125 12.9066 191.921 12.7906C191.734 12.6995 191.567 12.5724 191.43 12.4164C191.292 12.2605 191.187 12.0789 191.12 11.8821ZM201.239 23.6651C200.757 23.8181 200.234 23.7842 199.775 23.5701C199.532 23.4552 199.318 23.287 199.149 23.0781C198.979 22.8692 198.86 22.6249 198.798 22.3633C198.717 22.1204 198.689 21.8632 198.714 21.6085C198.74 21.3538 198.819 21.1074 198.947 20.8854C199.07 20.6593 199.239 20.4608 199.442 20.3022C199.645 20.1437 199.878 20.0284 200.127 19.9634C200.37 19.8832 200.626 19.8539 200.881 19.8772C201.135 19.9005 201.382 19.976 201.606 20.099C201.831 20.2166 202.029 20.3798 202.188 20.5782C202.347 20.7767 202.463 21.006 202.528 21.2516C202.618 21.5021 202.651 21.7695 202.625 22.0344C202.599 22.2993 202.515 22.5552 202.379 22.7838C202.126 23.2129 201.718 23.5284 201.239 23.6651Z" fill="#0C0C0C"/>
<path d="M222.946 219.767C215.934 226.777 189.51 227.482 183.27 219.767C180.788 216.689 183.27 203.943 183.27 203.943C183.27 198.685 185.359 193.641 189.078 189.921C192.797 186.201 197.841 184.11 203.102 184.106C208.365 184.106 213.412 186.196 217.134 189.916C220.856 193.637 222.946 198.682 222.946 203.943C222.946 203.943 225.659 216.947 222.946 219.767Z" fill="white" stroke="#0C0C0C" stroke-width="2.71489" stroke-miterlimit="10"/>
<path d="M81.9568 167.564L70.2642 155.063C66.8052 151.361 67.0358 145.205 70.8067 140.853L70.9695 140.676C74.754 136.297 80.8581 135.253 85.0224 138.141L98.9667 148.039" fill="white"/>
<path d="M81.9568 167.564L70.2642 155.063C66.8052 151.361 67.0358 145.205 70.8067 140.853L70.9695 140.676C74.754 136.297 80.8581 135.253 85.0224 138.141L98.9667 148.039" stroke="#0C0C0C" stroke-width="2.71489" stroke-linecap="round" stroke-linejoin="round"/>
<path d="M164.064 198.696L119.762 181.544L88.6722 145.612L44.3569 128.432L1.35744 189.435L45.6863 206.615L76.749 242.533L76.7761 242.56L76.7897 242.546L121.064 259.699L152.168 295.644L195.154 234.641L164.064 198.696Z" fill="#1BC47D"/>
<path d="M10.7702 177.178C25.8268 181.842 40.897 186.493 56.6861 190.94L86.6366 227.794" stroke="white" stroke-width="1.35744" stroke-miterlimit="10"/>
<path d="M72.4481 210.235L104.23 165.747" stroke="white" stroke-width="1.35744" stroke-miterlimit="10"/>
<path d="M87.3961 190.615L100.459 207.455" stroke="white" stroke-width="1.35744" stroke-miterlimit="10"/>
<path d="M96.6878 202.574L115.502 177.734L117.13 178.574L117.374 179.659" stroke="white" stroke-width="1.35744" stroke-miterlimit="10"/>
<path d="M158.461 164.066L156.263 164.799" stroke="white" stroke-width="1.35744" stroke-miterlimit="10"/>
<path d="M72.2446 209.096C74.9575 191.835 77.589 174.574 79.9764 157.164C72.4402 155.223 65.3673 151.798 59.1717 147.09C52.9761 142.383 47.7824 136.487 43.8948 129.748" stroke="white" stroke-width="1.35744" stroke-miterlimit="10"/>
<path d="M43.7863 187.944L67.3885 152.622" stroke="white" stroke-width="1.35744" stroke-miterlimit="10"/>
<path d="M19.248 164.256L51.1653 175.713" stroke="white" stroke-width="1.35744" stroke-miterlimit="10"/>
<path d="M103.931 166.479C102.639 173.66 104.024 181.064 107.824 187.293" stroke="white" stroke-width="1.35744" stroke-miterlimit="10"/>
<path d="M206.574 164.961L193.267 175.727C189.333 178.913 183.202 178.235 179.119 174.167L178.957 173.991C174.887 169.923 174.195 163.727 177.437 159.795L188.289 146.602" fill="white"/>
<path d="M206.574 164.961L193.267 175.727C189.333 178.913 183.202 178.235 179.119 174.167L178.957 173.991C174.887 169.923 174.195 163.727 177.437 159.795L188.289 146.602" stroke="#0C0C0C" stroke-width="2.71489" stroke-linecap="round" stroke-linejoin="round"/>
<path d="M30.0997 167.876L62.6545 158.981" stroke="white" stroke-width="1.35744" stroke-miterlimit="10"/>
<path d="M30.3302 168.025L27.2782 154.886" stroke="white" stroke-width="1.35744" stroke-miterlimit="10"/>
<path d="M102.005 208.215L147.46 221.841" stroke="white" stroke-width="1.35744" stroke-miterlimit="10"/>
<path d="M201.026 245.828L198.191 242.818" stroke="white" stroke-width="1.35744" stroke-miterlimit="10"/>
<path d="M146.985 223.13L179.241 257.163" stroke="white" stroke-width="1.35744" stroke-miterlimit="10"/>
<path d="M154.486 254.451L168.485 269.827" stroke="white" stroke-width="1.35744" stroke-miterlimit="10"/>
<path d="M174.779 252.201L146.293 290.953" stroke="white" stroke-width="1.35744" stroke-miterlimit="10"/>
<path d="M164.076 240.919L194.556 234.913" stroke="white" stroke-width="1.35744" stroke-miterlimit="10"/>
<path d="M149.237 225.665L154.527 254.817" stroke="white" stroke-width="1.35744" stroke-miterlimit="10"/>
<path d="M128.876 249.814L151.936 243.74" stroke="white" stroke-width="1.35744" stroke-miterlimit="10"/>
<path d="M140.067 247.292C142.903 257.286 141.937 267.975 137.354 277.299L129.093 249.746L86.6365 226.696L146.361 222.37" stroke="white" stroke-width="1.35744" stroke-miterlimit="10"/>
<path d="M137.49 188.161L120.507 213.828" stroke="white" stroke-width="1.35744" stroke-miterlimit="10"/>
<path d="M1.35744 189.449L44.3569 128.446L88.6722 145.612L45.6863 206.615L1.35744 189.449Z" stroke="#0C0C0C" stroke-width="2.71489" stroke-linecap="round" stroke-linejoin="round"/>
<path d="M76.7751 242.56L119.775 181.557L88.6712 145.612L45.6853 206.615L76.7751 242.56Z" stroke="#0C0C0C" stroke-width="2.71489" stroke-linecap="round" stroke-linejoin="round"/>
<path d="M76.748 242.533L119.734 181.53L164.063 198.71L121.063 259.712L76.748 242.533Z" stroke="#0C0C0C" stroke-width="2.71489" stroke-linecap="round" stroke-linejoin="round"/>
<path d="M152.167 295.644L195.166 234.655L164.063 198.71L121.063 259.712L152.167 295.644Z" stroke="#0C0C0C" stroke-width="2.71489" stroke-linecap="round" stroke-linejoin="round"/>
<path d="M92.822 135.185C93.0564 139.632 94.6681 143.897 97.4339 147.388L93.3646 144.364C93.0387 144.091 92.7818 143.745 92.6145 143.354C92.4472 142.963 92.3742 142.538 92.4015 142.114C92.4693 139.524 92.727 137.843 92.822 135.185Z" fill="#0C0C0C"/>
<path d="M210.643 184.825C211.753 184.746 212.822 184.372 213.74 183.743C214.658 183.114 215.391 182.252 215.866 181.245C216.064 182.527 215.981 183.836 215.621 185.083C215.417 185.713 215.026 186.267 214.501 186.671C213.975 187.075 213.34 187.311 212.678 187.347C211.335 187.306 210.155 185.761 210.643 184.825Z" fill="#0C0C0C"/>
</g>
<defs>
<clipPath id="clip0_82_784">
<rect width="248" height="297" fill="white"/>
</clipPath>
</defs>
</svg>
