<svg width="218" height="111" viewBox="0 0 218 111" fill="none" xmlns="http://www.w3.org/2000/svg">
<path d="M1.99338 36.104C1.99338 32.776 2.71338 29.816 4.15338 27.224C5.59338 24.6 7.59338 22.568 10.1534 21.128C12.7454 19.656 15.6734 18.92 18.9374 18.92C22.9374 18.92 26.3614 19.976 29.2094 22.088C32.0574 24.2 33.9614 27.08 34.9214 30.728H25.8974C25.2254 29.32 24.2654 28.248 23.0174 27.512C21.8014 26.776 20.4094 26.408 18.8414 26.408C16.3134 26.408 14.2654 27.288 12.6974 29.048C11.1294 30.808 10.3454 33.16 10.3454 36.104C10.3454 39.048 11.1294 41.4 12.6974 43.16C14.2654 44.92 16.3134 45.8 18.8414 45.8C20.4094 45.8 21.8014 45.432 23.0174 44.696C24.2654 43.96 25.2254 42.888 25.8974 41.48H34.9214C33.9614 45.128 32.0574 48.008 29.2094 50.12C26.3614 52.2 22.9374 53.24 18.9374 53.24C15.6734 53.24 12.7454 52.52 10.1534 51.08C7.59338 49.608 5.59338 47.576 4.15338 44.984C2.71338 42.392 1.99338 39.432 1.99338 36.104ZM47.8559 17.48V53H39.6479V17.48H47.8559ZM65.6961 53.384C63.0721 53.384 60.7041 52.824 58.5921 51.704C56.5121 50.584 54.8641 48.984 53.6481 46.904C52.4641 44.824 51.8721 42.392 51.8721 39.608C51.8721 36.856 52.4801 34.44 53.6961 32.36C54.9121 30.248 56.5761 28.632 58.6881 27.512C60.8001 26.392 63.1681 25.832 65.7921 25.832C68.4161 25.832 70.7841 26.392 72.8961 27.512C75.0081 28.632 76.6721 30.248 77.8881 32.36C79.1041 34.44 79.7121 36.856 79.7121 39.608C79.7121 42.36 79.0881 44.792 77.8401 46.904C76.6241 48.984 74.9441 50.584 72.8001 51.704C70.6881 52.824 68.3201 53.384 65.6961 53.384ZM65.6961 46.28C67.2641 46.28 68.5921 45.704 69.6801 44.552C70.8001 43.4 71.3601 41.752 71.3601 39.608C71.3601 37.464 70.8161 35.816 69.7281 34.664C68.6721 33.512 67.3601 32.936 65.7921 32.936C64.1921 32.936 62.8641 33.512 61.8081 34.664C60.7521 35.784 60.2241 37.432 60.2241 39.608C60.2241 41.752 60.7361 43.4 61.7601 44.552C62.8161 45.704 64.1281 46.28 65.6961 46.28ZM110.215 26.216V53H102.007V49.352C101.175 50.536 100.039 51.496 98.5986 52.232C97.1906 52.936 95.6226 53.288 93.8946 53.288C91.8466 53.288 90.0386 52.84 88.4706 51.944C86.9026 51.016 85.6866 49.688 84.8226 47.96C83.9586 46.232 83.5266 44.2 83.5266 41.864V26.216H91.6866V40.76C91.6866 42.552 92.1506 43.944 93.0786 44.936C94.0066 45.928 95.2546 46.424 96.8226 46.424C98.4226 46.424 99.6866 45.928 100.615 44.936C101.543 43.944 102.007 42.552 102.007 40.76V26.216H110.215ZM114.178 39.56C114.178 36.808 114.69 34.392 115.714 32.312C116.77 30.232 118.194 28.632 119.986 27.512C121.778 26.392 123.778 25.832 125.986 25.832C127.746 25.832 129.346 26.2 130.786 26.936C132.258 27.672 133.41 28.664 134.242 29.912V17.48H142.45V53H134.242V49.16C133.474 50.44 132.37 51.464 130.93 52.232C129.522 53 127.874 53.384 125.986 53.384C123.778 53.384 121.778 52.824 119.986 51.704C118.194 50.552 116.77 48.936 115.714 46.856C114.69 44.744 114.178 42.312 114.178 39.56ZM134.242 39.608C134.242 37.56 133.666 35.944 132.514 34.76C131.394 33.576 130.018 32.984 128.386 32.984C126.754 32.984 125.362 33.576 124.21 34.76C123.09 35.912 122.53 37.512 122.53 39.56C122.53 41.608 123.09 43.24 124.21 44.456C125.362 45.64 126.754 46.232 128.386 46.232C130.018 46.232 131.394 45.64 132.514 44.456C133.666 43.272 134.242 41.656 134.242 39.608ZM170.152 53.384C167.528 53.384 165.16 52.824 163.048 51.704C160.968 50.584 159.32 48.984 158.104 46.904C156.92 44.824 156.328 42.392 156.328 39.608C156.328 36.856 156.936 34.44 158.152 32.36C159.368 30.248 161.032 28.632 163.144 27.512C165.256 26.392 167.624 25.832 170.248 25.832C172.872 25.832 175.24 26.392 177.352 27.512C179.464 28.632 181.128 30.248 182.344 32.36C183.56 34.44 184.168 36.856 184.168 39.608C184.168 42.36 183.544 44.792 182.296 46.904C181.08 48.984 179.4 50.584 177.256 51.704C175.144 52.824 172.776 53.384 170.152 53.384ZM170.152 46.28C171.72 46.28 173.048 45.704 174.136 44.552C175.256 43.4 175.816 41.752 175.816 39.608C175.816 37.464 175.272 35.816 174.184 34.664C173.128 33.512 171.816 32.936 170.248 32.936C168.648 32.936 167.32 33.512 166.264 34.664C165.208 35.784 164.68 37.432 164.68 39.608C164.68 41.752 165.192 43.4 166.216 44.552C167.272 45.704 168.584 46.28 170.152 46.28ZM204.543 25.928C207.679 25.928 210.175 26.952 212.031 29C213.919 31.016 214.863 33.8 214.863 37.352V53H206.703V38.456C206.703 36.664 206.239 35.272 205.311 34.28C204.383 33.288 203.135 32.792 201.567 32.792C199.999 32.792 198.751 33.288 197.823 34.28C196.895 35.272 196.431 36.664 196.431 38.456V53H188.223V26.216H196.431V29.768C197.263 28.584 198.383 27.656 199.791 26.984C201.199 26.28 202.783 25.928 204.543 25.928Z" fill="white"/>
<path d="M74.0096 80.08C75.3963 80.08 76.6336 80.368 77.7216 80.944C78.831 81.52 79.695 82.3733 80.3136 83.504C80.9536 84.6347 81.2736 86 81.2736 87.6V98H77.6576V88.144C77.6576 86.5653 77.263 85.36 76.4736 84.528C75.6843 83.6747 74.607 83.248 73.2416 83.248C71.8763 83.248 70.7883 83.6747 69.9776 84.528C69.1883 85.36 68.7936 86.5653 68.7936 88.144V98H65.1776V88.144C65.1776 86.5653 64.783 85.36 63.9936 84.528C63.2043 83.6747 62.127 83.248 60.7616 83.248C59.3963 83.248 58.3083 83.6747 57.4976 84.528C56.7083 85.36 56.3136 86.5653 56.3136 88.144V98H52.6656V80.368H56.3136V82.384C56.911 81.6587 57.6683 81.0933 58.5856 80.688C59.503 80.2827 60.4843 80.08 61.5296 80.08C62.9376 80.08 64.1963 80.3787 65.3056 80.976C66.415 81.5733 67.2683 82.4373 67.8656 83.568C68.399 82.5013 69.231 81.6587 70.3616 81.04C71.4923 80.4 72.7083 80.08 74.0096 80.08ZM93.2636 98.288C91.5996 98.288 90.0956 97.9147 88.7516 97.168C87.4076 96.4 86.3516 95.3333 85.5836 93.968C84.8156 92.5813 84.4316 90.9813 84.4316 89.168C84.4316 87.376 84.8263 85.7867 85.6156 84.4C86.405 83.0133 87.4823 81.9467 88.8476 81.2C90.213 80.4533 91.7383 80.08 93.4236 80.08C95.109 80.08 96.6343 80.4533 97.9996 81.2C99.365 81.9467 100.442 83.0133 101.232 84.4C102.021 85.7867 102.416 87.376 102.416 89.168C102.416 90.96 102.01 92.5493 101.2 93.936C100.389 95.3227 99.2796 96.4 97.8716 97.168C96.485 97.9147 94.949 98.288 93.2636 98.288ZM93.2636 95.12C94.2023 95.12 95.077 94.896 95.8876 94.448C96.7196 94 97.3916 93.328 97.9036 92.432C98.4156 91.536 98.6716 90.448 98.6716 89.168C98.6716 87.888 98.4263 86.8107 97.9356 85.936C97.445 85.04 96.7943 84.368 95.9836 83.92C95.173 83.472 94.2983 83.248 93.3596 83.248C92.421 83.248 91.5463 83.472 90.7356 83.92C89.9463 84.368 89.317 85.04 88.8476 85.936C88.3783 86.8107 88.1436 87.888 88.1436 89.168C88.1436 91.0667 88.6236 92.5387 89.5836 93.584C90.565 94.608 91.7916 95.12 93.2636 95.12ZM109.37 82.992C109.989 82.1387 110.831 81.4453 111.898 80.912C112.986 80.3573 114.191 80.08 115.514 80.08C117.071 80.08 118.479 80.4533 119.738 81.2C120.997 81.9467 121.989 83.0133 122.714 84.4C123.439 85.7653 123.802 87.3333 123.802 89.104C123.802 90.8747 123.439 92.464 122.714 93.872C121.989 95.2587 120.986 96.3467 119.706 97.136C118.447 97.904 117.05 98.288 115.514 98.288C114.149 98.288 112.933 98.0213 111.866 97.488C110.821 96.9547 109.989 96.272 109.37 95.44V98H105.722V74.32H109.37V82.992ZM120.09 89.104C120.09 87.888 119.834 86.8427 119.322 85.968C118.831 85.072 118.17 84.4 117.338 83.952C116.527 83.4827 115.653 83.248 114.714 83.248C113.797 83.248 112.922 83.4827 112.09 83.952C111.279 84.4213 110.618 85.104 110.106 86C109.615 86.896 109.37 87.952 109.37 89.168C109.37 90.384 109.615 91.4507 110.106 92.368C110.618 93.264 111.279 93.9467 112.09 94.416C112.922 94.8853 113.797 95.12 114.714 95.12C115.653 95.12 116.527 94.8853 117.338 94.416C118.17 93.9253 118.831 93.2213 119.322 92.304C119.834 91.3867 120.09 90.32 120.09 89.104ZM128.965 78.032C128.304 78.032 127.749 77.808 127.301 77.36C126.853 76.912 126.629 76.3573 126.629 75.696C126.629 75.0347 126.853 74.48 127.301 74.032C127.749 73.584 128.304 73.36 128.965 73.36C129.605 73.36 130.149 73.584 130.597 74.032C131.045 74.48 131.269 75.0347 131.269 75.696C131.269 76.3573 131.045 76.912 130.597 77.36C130.149 77.808 129.605 78.032 128.965 78.032ZM130.757 80.368V98H127.109V80.368H130.757ZM138.895 74.32V98H135.247V74.32H138.895ZM159.544 88.752C159.544 89.4133 159.502 90.0107 159.416 90.544H145.944C146.051 91.952 146.574 93.0827 147.512 93.936C148.451 94.7893 149.603 95.216 150.968 95.216C152.931 95.216 154.318 94.3947 155.128 92.752H159.064C158.531 94.3733 157.56 95.7067 156.152 96.752C154.766 97.776 153.038 98.288 150.968 98.288C149.283 98.288 147.768 97.9147 146.424 97.168C145.102 96.4 144.056 95.3333 143.288 93.968C142.542 92.5813 142.168 90.9813 142.168 89.168C142.168 87.3547 142.531 85.7653 143.256 84.4C144.003 83.0133 145.038 81.9467 146.36 81.2C147.704 80.4533 149.24 80.08 150.968 80.08C152.632 80.08 154.115 80.4427 155.416 81.168C156.718 81.8933 157.731 82.9173 158.456 84.24C159.182 85.5413 159.544 87.0453 159.544 88.752ZM155.736 87.6C155.715 86.256 155.235 85.1787 154.296 84.368C153.358 83.5573 152.195 83.152 150.808 83.152C149.55 83.152 148.472 83.5573 147.576 84.368C146.68 85.1573 146.147 86.2347 145.976 87.6H155.736Z" fill="white"/>
</svg>
