<svg width="208" height="111" viewBox="0 0 208 111" fill="none" xmlns="http://www.w3.org/2000/svg">
<path d="M1.92931 36.104C1.92931 32.776 2.64931 29.816 4.08931 27.224C5.52931 24.6 7.52931 22.568 10.0893 21.128C12.6813 19.656 15.6093 18.92 18.8733 18.92C22.8733 18.92 26.2973 19.976 29.1453 22.088C31.9933 24.2 33.8973 27.08 34.8573 30.728H25.8333C25.1613 29.32 24.2013 28.248 22.9533 27.512C21.7373 26.776 20.3453 26.408 18.7773 26.408C16.2493 26.408 14.2013 27.288 12.6333 29.048C11.0653 30.808 10.2813 33.16 10.2813 36.104C10.2813 39.048 11.0653 41.4 12.6333 43.16C14.2013 44.92 16.2493 45.8 18.7773 45.8C20.3453 45.8 21.7373 45.432 22.9533 44.696C24.2013 43.96 25.1613 42.888 25.8333 41.48H34.8573C33.8973 45.128 31.9933 48.008 29.1453 50.12C26.2973 52.2 22.8733 53.24 18.8733 53.24C15.6093 53.24 12.6813 52.52 10.0893 51.08C7.52931 49.608 5.52931 47.576 4.08931 44.984C2.64931 42.392 1.92931 39.432 1.92931 36.104ZM47.7918 17.48V53H39.5838V17.48H47.7918ZM65.6321 53.384C63.0081 53.384 60.6401 52.824 58.5281 51.704C56.4481 50.584 54.8001 48.984 53.5841 46.904C52.4001 44.824 51.8081 42.392 51.8081 39.608C51.8081 36.856 52.4161 34.44 53.6321 32.36C54.8481 30.248 56.5121 28.632 58.6241 27.512C60.7361 26.392 63.1041 25.832 65.7281 25.832C68.3521 25.832 70.7201 26.392 72.8321 27.512C74.9441 28.632 76.6081 30.248 77.8241 32.36C79.0401 34.44 79.6481 36.856 79.6481 39.608C79.6481 42.36 79.0241 44.792 77.7761 46.904C76.5601 48.984 74.8801 50.584 72.7361 51.704C70.6241 52.824 68.2561 53.384 65.6321 53.384ZM65.6321 46.28C67.2001 46.28 68.5281 45.704 69.6161 44.552C70.7361 43.4 71.2961 41.752 71.2961 39.608C71.2961 37.464 70.7521 35.816 69.6641 34.664C68.6081 33.512 67.2961 32.936 65.7281 32.936C64.1281 32.936 62.8001 33.512 61.7441 34.664C60.6881 35.784 60.1601 37.432 60.1601 39.608C60.1601 41.752 60.6721 43.4 61.6961 44.552C62.7521 45.704 64.0641 46.28 65.6321 46.28ZM110.151 26.216V53H101.943V49.352C101.111 50.536 99.9746 51.496 98.5346 52.232C97.1266 52.936 95.5586 53.288 93.8306 53.288C91.7826 53.288 89.9746 52.84 88.4066 51.944C86.8386 51.016 85.6226 49.688 84.7586 47.96C83.8946 46.232 83.4626 44.2 83.4626 41.864V26.216H91.6226V40.76C91.6226 42.552 92.0866 43.944 93.0146 44.936C93.9426 45.928 95.1906 46.424 96.7586 46.424C98.3586 46.424 99.6226 45.928 100.551 44.936C101.479 43.944 101.943 42.552 101.943 40.76V26.216H110.151ZM114.114 39.56C114.114 36.808 114.626 34.392 115.65 32.312C116.706 30.232 118.13 28.632 119.922 27.512C121.714 26.392 123.714 25.832 125.922 25.832C127.682 25.832 129.282 26.2 130.722 26.936C132.194 27.672 133.346 28.664 134.178 29.912V17.48H142.386V53H134.178V49.16C133.41 50.44 132.306 51.464 130.866 52.232C129.458 53 127.81 53.384 125.922 53.384C123.714 53.384 121.714 52.824 119.922 51.704C118.13 50.552 116.706 48.936 115.65 46.856C114.626 44.744 114.114 42.312 114.114 39.56ZM134.178 39.608C134.178 37.56 133.602 35.944 132.45 34.76C131.33 33.576 129.954 32.984 128.322 32.984C126.69 32.984 125.298 33.576 124.146 34.76C123.026 35.912 122.466 37.512 122.466 39.56C122.466 41.608 123.026 43.24 124.146 44.456C125.298 45.64 126.69 46.232 128.322 46.232C129.954 46.232 131.33 45.64 132.45 44.456C133.602 43.272 134.178 41.656 134.178 39.608ZM160.216 53.384C157.592 53.384 155.224 52.824 153.112 51.704C151.032 50.584 149.384 48.984 148.168 46.904C146.984 44.824 146.392 42.392 146.392 39.608C146.392 36.856 147 34.44 148.216 32.36C149.432 30.248 151.096 28.632 153.208 27.512C155.32 26.392 157.688 25.832 160.312 25.832C162.936 25.832 165.304 26.392 167.416 27.512C169.528 28.632 171.192 30.248 172.408 32.36C173.624 34.44 174.232 36.856 174.232 39.608C174.232 42.36 173.608 44.792 172.36 46.904C171.144 48.984 169.464 50.584 167.32 51.704C165.208 52.824 162.84 53.384 160.216 53.384ZM160.216 46.28C161.784 46.28 163.112 45.704 164.2 44.552C165.32 43.4 165.88 41.752 165.88 39.608C165.88 37.464 165.336 35.816 164.248 34.664C163.192 33.512 161.88 32.936 160.312 32.936C158.712 32.936 157.384 33.512 156.328 34.664C155.272 35.784 154.744 37.432 154.744 39.608C154.744 41.752 155.256 43.4 156.28 44.552C157.336 45.704 158.648 46.28 160.216 46.28ZM194.607 25.928C197.743 25.928 200.239 26.952 202.095 29C203.983 31.016 204.927 33.8 204.927 37.352V53H196.767V38.456C196.767 36.664 196.303 35.272 195.375 34.28C194.447 33.288 193.199 32.792 191.631 32.792C190.063 32.792 188.815 33.288 187.887 34.28C186.959 35.272 186.495 36.664 186.495 38.456V53H178.287V26.216H186.495V29.768C187.327 28.584 188.447 27.656 189.855 26.984C191.263 26.28 192.847 25.928 194.607 25.928Z" fill="white"/>
<path d="M69.0096 80.08C70.3963 80.08 71.6336 80.368 72.7216 80.944C73.831 81.52 74.695 82.3733 75.3136 83.504C75.9536 84.6347 76.2736 86 76.2736 87.6V98H72.6576V88.144C72.6576 86.5653 72.263 85.36 71.4736 84.528C70.6843 83.6747 69.607 83.248 68.2416 83.248C66.8763 83.248 65.7883 83.6747 64.9776 84.528C64.1883 85.36 63.7936 86.5653 63.7936 88.144V98H60.1776V88.144C60.1776 86.5653 59.783 85.36 58.9936 84.528C58.2043 83.6747 57.127 83.248 55.7616 83.248C54.3963 83.248 53.3083 83.6747 52.4976 84.528C51.7083 85.36 51.3136 86.5653 51.3136 88.144V98H47.6656V80.368H51.3136V82.384C51.911 81.6587 52.6683 81.0933 53.5856 80.688C54.503 80.2827 55.4843 80.08 56.5296 80.08C57.9376 80.08 59.1963 80.3787 60.3056 80.976C61.415 81.5733 62.2683 82.4373 62.8656 83.568C63.399 82.5013 64.231 81.6587 65.3616 81.04C66.4923 80.4 67.7083 80.08 69.0096 80.08ZM88.2636 98.288C86.5996 98.288 85.0956 97.9147 83.7516 97.168C82.4076 96.4 81.3516 95.3333 80.5836 93.968C79.8156 92.5813 79.4316 90.9813 79.4316 89.168C79.4316 87.376 79.8263 85.7867 80.6156 84.4C81.405 83.0133 82.4823 81.9467 83.8476 81.2C85.213 80.4533 86.7383 80.08 88.4236 80.08C90.109 80.08 91.6343 80.4533 92.9996 81.2C94.365 81.9467 95.4423 83.0133 96.2316 84.4C97.021 85.7867 97.4156 87.376 97.4156 89.168C97.4156 90.96 97.0103 92.5493 96.1996 93.936C95.389 95.3227 94.2796 96.4 92.8716 97.168C91.485 97.9147 89.949 98.288 88.2636 98.288ZM88.2636 95.12C89.2023 95.12 90.077 94.896 90.8876 94.448C91.7196 94 92.3916 93.328 92.9036 92.432C93.4156 91.536 93.6716 90.448 93.6716 89.168C93.6716 87.888 93.4263 86.8107 92.9356 85.936C92.445 85.04 91.7943 84.368 90.9836 83.92C90.173 83.472 89.2983 83.248 88.3596 83.248C87.421 83.248 86.5463 83.472 85.7356 83.92C84.9463 84.368 84.317 85.04 83.8476 85.936C83.3783 86.8107 83.1436 87.888 83.1436 89.168C83.1436 91.0667 83.6236 92.5387 84.5836 93.584C85.565 94.608 86.7916 95.12 88.2636 95.12ZM104.37 82.992C104.989 82.1387 105.831 81.4453 106.898 80.912C107.986 80.3573 109.191 80.08 110.514 80.08C112.071 80.08 113.479 80.4533 114.738 81.2C115.997 81.9467 116.989 83.0133 117.714 84.4C118.439 85.7653 118.802 87.3333 118.802 89.104C118.802 90.8747 118.439 92.464 117.714 93.872C116.989 95.2587 115.986 96.3467 114.706 97.136C113.447 97.904 112.05 98.288 110.514 98.288C109.149 98.288 107.933 98.0213 106.866 97.488C105.821 96.9547 104.989 96.272 104.37 95.44V98H100.722V74.32H104.37V82.992ZM115.09 89.104C115.09 87.888 114.834 86.8427 114.322 85.968C113.831 85.072 113.17 84.4 112.338 83.952C111.527 83.4827 110.653 83.248 109.714 83.248C108.797 83.248 107.922 83.4827 107.09 83.952C106.279 84.4213 105.618 85.104 105.106 86C104.615 86.896 104.37 87.952 104.37 89.168C104.37 90.384 104.615 91.4507 105.106 92.368C105.618 93.264 106.279 93.9467 107.09 94.416C107.922 94.8853 108.797 95.12 109.714 95.12C110.653 95.12 111.527 94.8853 112.338 94.416C113.17 93.9253 113.831 93.2213 114.322 92.304C114.834 91.3867 115.09 90.32 115.09 89.104ZM123.965 78.032C123.304 78.032 122.749 77.808 122.301 77.36C121.853 76.912 121.629 76.3573 121.629 75.696C121.629 75.0347 121.853 74.48 122.301 74.032C122.749 73.584 123.304 73.36 123.965 73.36C124.605 73.36 125.149 73.584 125.597 74.032C126.045 74.48 126.269 75.0347 126.269 75.696C126.269 76.3573 126.045 76.912 125.597 77.36C125.149 77.808 124.605 78.032 123.965 78.032ZM125.757 80.368V98H122.109V80.368H125.757ZM133.895 74.32V98H130.247V74.32H133.895ZM154.544 88.752C154.544 89.4133 154.502 90.0107 154.416 90.544H140.944C141.051 91.952 141.574 93.0827 142.512 93.936C143.451 94.7893 144.603 95.216 145.968 95.216C147.931 95.216 149.318 94.3947 150.128 92.752H154.064C153.531 94.3733 152.56 95.7067 151.152 96.752C149.766 97.776 148.038 98.288 145.968 98.288C144.283 98.288 142.768 97.9147 141.424 97.168C140.102 96.4 139.056 95.3333 138.288 93.968C137.542 92.5813 137.168 90.9813 137.168 89.168C137.168 87.3547 137.531 85.7653 138.256 84.4C139.003 83.0133 140.038 81.9467 141.36 81.2C142.704 80.4533 144.24 80.08 145.968 80.08C147.632 80.08 149.115 80.4427 150.416 81.168C151.718 81.8933 152.731 82.9173 153.456 84.24C154.182 85.5413 154.544 87.0453 154.544 88.752ZM150.736 87.6C150.715 86.256 150.235 85.1787 149.296 84.368C148.358 83.5573 147.195 83.152 145.808 83.152C144.55 83.152 143.472 83.5573 142.576 84.368C141.68 85.1573 141.147 86.2347 140.976 87.6H150.736Z" fill="white"/>
</svg>
