<svg width="216" height="216" viewBox="0 0 216 216" fill="none" xmlns="http://www.w3.org/2000/svg">
<g clip-path="url(#clip0_297_1343)">
<path d="M128.522 193.574L130.12 172.535C130.662 165.448 125.656 159.386 119.304 159.386H115.725C109.334 159.386 104.315 165.527 104.91 172.64L106.653 193.679C107.181 199.925 111.856 204.698 117.469 204.698H117.706C123.345 204.685 128.047 199.859 128.522 193.574Z" fill="white" stroke="#0C0C0C" stroke-width="2.64123" stroke-miterlimit="10"/>
<path d="M50.672 195.993L49.0741 179.478C48.5326 173.942 53.5377 169.182 59.8899 169.182H63.4687C69.8605 169.182 74.8789 173.995 74.2846 179.557L72.5413 196.072C72.0131 200.951 67.3381 204.685 61.7255 204.685H61.4877C55.8487 204.685 51.1474 200.911 50.672 195.993Z" fill="white" stroke="#0C0C0C" stroke-width="2.64123" stroke-miterlimit="10"/>
<path d="M183.592 128.13C183.592 128.13 182.906 109.458 201.843 111.036C220.781 112.614 216.568 137.611 203.283 126.46C189.997 115.309 206.597 94.402 206.597 94.402" stroke="#0C0C0C" stroke-width="2.64123" stroke-linecap="round" stroke-linejoin="round"/>
<path d="M22.4636 119.149L1.71679 122.068C1.63596 121.717 1.57422 121.361 1.53188 121.003C-0.316983 107.933 9.97049 95.6775 24.5105 93.6393" fill="white"/>
<path d="M22.4636 119.149L1.71679 122.068C1.63596 121.717 1.57422 121.361 1.53188 121.003C-0.316983 107.933 9.97049 95.6775 24.5105 93.6393" stroke="#0C0C0C" stroke-width="2.64123" stroke-linecap="round" stroke-linejoin="round"/>
<path d="M117.839 53.7313H84.744C46.8394 53.7313 16.1116 84.3267 16.1116 122.068C16.1116 159.809 46.8394 190.405 84.744 190.405H117.839C155.743 190.405 186.471 159.809 186.471 122.068C186.471 84.3267 155.743 53.7313 117.839 53.7313Z" fill="white" stroke="#0C0C0C" stroke-width="2.64123" stroke-miterlimit="10" stroke-linecap="round"/>
<path opacity="0.99" d="M111.777 105.053L99.6667 122.055" stroke="#0C0C0C" stroke-width="2.64123" stroke-linecap="round" stroke-linejoin="round"/>
<path d="M99.5216 122.055C86.5004 119.557 77.7711 105.474 80.5576 91.1147L99.5216 122.055Z" fill="white"/>
<path d="M99.5216 122.055C86.5004 119.557 77.7711 105.474 80.5576 91.1147" stroke="#0C0C0C" stroke-width="2.64123" stroke-miterlimit="10" stroke-linecap="round"/>
<path d="M95.9031 181.832L91.413 197.808C90.0924 202.542 84.81 205.448 79.303 204.514H79.0652C73.5055 203.567 69.504 199.07 69.8209 194.139L71.0227 177.598" fill="white"/>
<path d="M95.9031 181.832L91.413 197.808C90.0924 202.542 84.81 205.448 79.303 204.514H79.0652C73.5055 203.567 69.504 199.07 69.8209 194.139L71.0227 177.598" stroke="#0C0C0C" stroke-width="2.64123" stroke-linecap="round" stroke-linejoin="round"/>
<path d="M139.734 180.898L144.119 197.571C145.44 202.502 150.643 205.461 156.189 204.475H156.427C162 203.449 166.041 198.715 165.671 193.574L164.073 170.813" fill="white"/>
<path d="M139.734 180.898L144.119 197.571C145.44 202.502 150.643 205.461 156.189 204.475H156.427C162 203.449 166.041 198.715 165.671 193.574L164.073 170.813" stroke="#0C0C0C" stroke-width="2.64123" stroke-linecap="round" stroke-linejoin="round"/>
<path d="M96.2466 185.474C95.8769 187.118 98.5576 189.695 101.278 189.971C98.6125 190.32 95.9213 190.434 93.2356 190.313C93.7638 188.617 95.5335 187.315 96.2466 185.474Z" fill="#0C0C0C"/>
<path d="M69.2795 184.146C69.0154 185.803 66.3611 187.525 63.7859 187.249C66.4271 187.788 67.4043 190.379 71.3133 189.182C71.0096 187.433 69.7418 186.053 69.2795 184.146Z" fill="#0C0C0C"/>
<path d="M138.982 182.45C138.854 183.573 138.372 184.627 137.606 185.461C136.84 186.294 135.828 186.865 134.716 187.091C137.357 186.789 139.127 188.959 142.481 186.618C141.689 185.053 140.064 184.12 138.982 182.45Z" fill="#0C0C0C"/>
<path d="M17.485 95.5328C18.2694 96.0307 18.8264 96.8151 19.0363 97.7174C19.2462 98.6197 19.0922 99.568 18.6075 100.359C19.4527 99.688 19.9281 100.161 20.4432 99.1884C20.7069 98.7181 20.8454 98.1884 20.8454 97.6498C20.8454 97.1112 20.7069 96.5816 20.4432 96.1114C19.8489 95.2041 18.5943 95.283 17.485 95.5328Z" fill="#0C0C0C"/>
<path d="M73.0302 132.89L72.2906 143.002C72.2321 144.545 71.5609 146.001 70.4243 147.052C69.2876 148.102 67.7786 148.66 66.229 148.603H65.8195C64.279 148.435 62.8687 147.664 61.8981 146.461C60.9275 145.258 60.4761 143.721 60.6428 142.187L60.8275 139.78L66.9025 137.558L61.2106 134.468L61.3955 132.062C61.454 130.521 62.1234 129.066 63.2571 128.016C64.3908 126.966 65.8964 126.407 67.4438 126.46H67.8665C69.4058 126.635 70.8128 127.41 71.7803 128.615C72.7479 129.819 73.1972 131.356 73.0302 132.89Z" fill="#0C0C0C"/>
<path d="M36.9772 130.26L36.2244 140.372C36.1693 141.915 35.5014 143.373 34.3672 144.426C33.2331 145.478 31.7256 146.04 30.176 145.987H29.7667C28.2262 145.818 26.8157 145.048 25.8451 143.844C24.8746 142.641 24.4231 141.104 24.5898 139.57L24.7747 137.163L30.8363 134.941L25.1578 131.851L25.3425 129.445C25.401 127.904 26.0705 126.45 27.2043 125.4C28.338 124.35 29.8436 123.79 31.391 123.843H31.8135C33.3502 124.019 34.7552 124.791 35.7224 125.993C36.6895 127.195 37.1405 128.729 36.9772 130.26Z" fill="#0C0C0C"/>
<path d="M70.3097 118.886C70.3097 118.886 79.7257 119.596 80.3596 126.881" stroke="#0C0C0C" stroke-width="2.64123" stroke-miterlimit="10" stroke-linecap="round"/>
<path d="M31.6287 116.085C31.6287 116.085 22.2128 115.415 20.5225 122.528" stroke="#0C0C0C" stroke-width="2.64123" stroke-miterlimit="10" stroke-linecap="round"/>
<path d="M21.2618 155.625C21.4599 152.837 23.4277 150.365 25.8972 148.327C31.0335 144.212 37.5666 142.229 44.135 142.791L52.468 143.396C59.0535 143.793 65.2315 146.704 69.7153 151.523C71.8547 153.889 73.4394 156.624 73.2281 159.412C72.9476 163.238 71.1525 166.796 68.2375 169.303C65.3226 171.811 61.5265 173.064 57.6844 172.785L34.6529 171.102C30.8179 170.813 27.2545 169.021 24.7443 166.12C22.234 163.218 20.9816 159.444 21.2618 155.625Z" fill="white" stroke="#0C0C0C" stroke-width="2.64123" stroke-miterlimit="10"/>
<path d="M32.289 158.413C31.2985 155.402 32.2098 152.39 34.336 151.68C36.4622 150.97 38.9978 152.851 40.0015 155.862C41.0052 158.873 37.9545 162.581 37.9545 162.581C37.9545 162.581 33.3323 161.424 32.289 158.413Z" fill="#0C0C0C"/>
<path d="M61.7786 160.556C63.2181 157.729 62.7426 154.613 60.7485 153.613C58.7543 152.614 55.9547 154.087 54.5284 156.927C53.1021 159.767 55.5584 163.87 55.5584 163.87C55.5584 163.87 60.3523 163.383 61.7786 160.556Z" fill="#0C0C0C"/>
<path d="M73.3338 159.636C71.4982 157.387 70.6925 149.353 70.4284 146.486C70.4178 146.379 70.4346 146.27 70.4774 146.17C70.5201 146.071 70.5874 145.984 70.6729 145.917C70.7585 145.85 70.8597 145.806 70.967 145.788C71.0742 145.77 71.1842 145.78 71.2868 145.816C73.928 146.684 81.4819 149.287 83.3044 151.536C83.8502 152.186 84.2607 152.937 84.512 153.747C84.7633 154.557 84.8505 155.408 84.7683 156.251C84.6862 157.095 84.4364 157.913 84.0335 158.66C83.6306 159.406 83.0827 160.065 82.4216 160.599C81.7605 161.132 80.9995 161.53 80.1827 161.768C79.366 162.006 78.5099 162.079 77.6642 161.985C76.8185 161.89 76.0001 161.629 75.2567 161.217C74.5133 160.805 73.8597 160.249 73.3338 159.583V159.636Z" fill="#0E70F1"/>
<path d="M19.1092 11.2854L43.9369 82.8307C44.1553 83.4581 44.5378 84.0162 45.045 84.4474C45.5522 84.8787 46.1657 85.1675 46.8223 85.284C47.4789 85.4006 48.1548 85.3407 48.7804 85.1105C49.406 84.8804 49.9587 84.4883 50.3815 83.9746L100.842 22.9356C101.267 22.4231 101.546 21.807 101.652 21.1511C101.758 20.4951 101.686 19.8229 101.443 19.2038C101.201 18.5848 100.797 18.0413 100.274 17.6294C99.7504 17.2175 99.1259 16.9521 98.465 16.8607L23.1899 6.34125C22.5508 6.25133 21.8992 6.32653 21.2978 6.55967C20.6963 6.79281 20.1653 7.17605 19.7555 7.67255C19.3457 8.16905 19.071 8.76209 18.9579 9.39478C18.8447 10.0275 18.8968 10.6785 19.1092 11.2854Z" fill="#D1405A"/>
<path d="M39.68 22.8212L38.4545 24.3035C37.8102 25.0829 37.9225 26.2346 38.7052 26.8762L54.3358 39.6873C55.1185 40.3288 56.2753 40.2172 56.9196 39.4378L58.145 37.9555C58.7894 37.1762 58.6771 36.0243 57.8944 35.3828L42.2639 22.5717C41.4811 21.9301 40.3243 22.0418 39.68 22.8212Z" fill="white"/>
<path d="M63.0727 46.223C64.7648 46.223 66.1366 44.8572 66.1366 43.1724C66.1366 41.4876 64.7648 40.1218 63.0727 40.1218C61.3806 40.1218 60.0089 41.4876 60.0089 43.1724C60.0089 44.8572 61.3806 46.223 63.0727 46.223Z" fill="white"/>
<path d="M49.0344 94.1259C44.201 94.1259 40.2787 92.5085 40.2787 90.5098" stroke="#0C0C0C" stroke-width="2.64123" stroke-linecap="round" stroke-linejoin="round"/>
<path d="M57.777 90.5098C57.777 92.5085 53.8152 94.1259 49.0345 94.1259" stroke="#0C0C0C" stroke-width="2.64123" stroke-linecap="round" stroke-linejoin="round"/>
</g>
<defs>
<clipPath id="clip0_297_1343">
<rect width="216" height="201" fill="white" transform="translate(0 5)"/>
</clipPath>
</defs>
</svg>
