<svg width="136" height="120" viewBox="0 0 136 120" fill="none" xmlns="http://www.w3.org/2000/svg">
<g clip-path="url(#clip0_73_2240)">
<path d="M103.465 39.3786L109.015 27.8229" stroke="white" stroke-width="2.46105" stroke-miterlimit="10" stroke-linecap="round"/>
<path d="M107.747 43.5762L119.733 38.8294" stroke="white" stroke-width="2.46105" stroke-miterlimit="10" stroke-linecap="round"/>
<path d="M33.411 64.8205C38.9837 64.8205 43.5013 60.3407 43.5013 54.8146C43.5013 49.2885 38.9837 44.8086 33.411 44.8086C27.8383 44.8086 23.3207 49.2885 23.3207 54.8146C23.3207 60.3407 27.8383 64.8205 33.411 64.8205Z" stroke="white" stroke-width="2.46105" stroke-miterlimit="10"/>
<path d="M31.7006 65.1256L26.3848 97.3277" stroke="white" stroke-width="2.46105" stroke-miterlimit="10" stroke-linecap="round"/>
<path d="M26.3849 97.3277L13.2306 95.1923" stroke="white" stroke-width="2.46105" stroke-miterlimit="10" stroke-linecap="round"/>
<path d="M27.9723 87.7L14.818 85.5646" stroke="white" stroke-width="2.46105" stroke-miterlimit="10" stroke-linecap="round"/>
<path d="M24.2805 95.7536C25.1911 95.9488 25.511 94.997 25.6587 94.1916C25.7202 94.7651 26.2494 95.0702 26.3232 95.6437C26.3293 95.7891 26.2883 95.9326 26.2064 96.0533C26.1246 96.174 26.006 96.2657 25.8679 96.3149C25.7297 96.3629 25.583 96.3822 25.437 96.3717C25.2909 96.3612 25.1487 96.321 25.0189 96.2538C24.7518 96.1197 24.5036 95.9515 24.2805 95.7536V95.7536Z" fill="white"/>
<path d="M25.302 88.4809C26.3356 88.7006 26.5325 89.1399 26.3972 89.933C26.6433 89.4083 27.197 89.6646 27.4308 89.1277C27.4828 88.9911 27.4894 88.8416 27.4496 88.7011C27.4097 88.5605 27.3255 88.4364 27.2093 88.3467C26.9615 88.1883 26.6646 88.1233 26.3726 88.1637C26.0052 88.2309 25.6463 88.3373 25.302 88.4809Z" fill="white"/>
<path d="M52.8043 54.3265C52.8043 54.3265 52.9643 42.3193 52.9643 34.9613C52.9643 27.6033 59.8799 21.6607 68.4197 21.6607C76.9596 21.6607 83.8751 27.6155 83.8751 34.9613C83.8751 42.3071 83.2845 54.9122 83.2845 54.9122" stroke="white" stroke-width="7.38316" stroke-miterlimit="10" stroke-linecap="round"/>
<path d="M94.7035 54.9122H55.056C50.8968 54.9122 47.5251 58.2557 47.5251 62.38V91.3119C47.5251 95.4363 50.8968 98.7798 55.056 98.7798H94.7035C98.8627 98.7798 102.234 95.4363 102.234 91.3119V62.38C102.234 58.2557 98.8627 54.9122 94.7035 54.9122Z" fill="white" stroke="white" stroke-width="2.46105" stroke-miterlimit="10" stroke-linecap="round"/>
<path d="M96.5495 54.9122H89.5478C86.4081 54.9122 83.8628 57.4362 83.8628 60.5497V93.1423C83.8628 96.2558 86.4081 98.7798 89.5478 98.7798H96.5495C99.6893 98.7798 102.235 96.2558 102.235 93.1423V60.5497C102.235 57.4362 99.6893 54.9122 96.5495 54.9122Z" fill="#0C0C0C" stroke="white" stroke-width="2.46105" stroke-miterlimit="10" stroke-linecap="round"/>
<path d="M76.381 54.9122H45.6055C41.4464 54.9122 38.0747 58.2557 38.0747 62.38V91.3119C38.0747 95.4363 41.4464 98.7798 45.6055 98.7798H76.381C80.5401 98.7798 83.9118 95.4363 83.9118 91.3119V62.38C83.9118 58.2557 80.5401 54.9122 76.381 54.9122Z" fill="#0E70F1" stroke="white" stroke-width="2.46105" stroke-miterlimit="10" stroke-linecap="round"/>
<path d="M67.4967 71.2146C67.7168 72.3745 67.617 73.5718 67.2076 74.6801C66.7982 75.7884 66.0946 76.7665 65.171 77.511C64.7808 77.8423 64.4684 78.2543 64.2558 78.718C64.0432 79.1818 63.9356 79.6861 63.9405 80.1955V85.8208C63.9405 86.3451 63.7305 86.8479 63.3566 87.2186C62.9828 87.5893 62.4758 87.7976 61.9471 87.7976H60.089C59.8267 87.7992 59.5667 87.7492 59.3242 87.6504C59.0816 87.5516 58.8611 87.4061 58.6757 87.2222C58.4903 87.0384 58.3435 86.8198 58.2439 86.5792C58.1443 86.3386 58.0939 86.0808 58.0955 85.8208V80.2565C58.1094 79.7405 58.0059 79.228 57.7929 78.7569C57.5799 78.2859 57.2628 77.8684 56.865 77.5354C56.0332 76.8722 55.3755 76.0193 54.9478 75.0496C54.5202 74.0799 54.3354 73.022 54.4091 71.9661C54.4828 70.9103 54.8128 69.8878 55.3711 68.9857C55.9293 68.0836 56.6992 67.3288 57.6151 66.7855C58.5311 66.2422 59.566 65.9266 60.6315 65.8655C61.697 65.8044 62.7617 65.9997 63.7346 66.4347C64.7076 66.8697 65.5601 67.5316 66.2194 68.3639C66.8788 69.1962 67.3254 70.1742 67.5213 71.2146H67.4967Z" fill="#0C0C0C"/>
</g>
<defs>
<clipPath id="clip0_73_2240">
<rect width="109" height="82" fill="white" transform="translate(12 18)"/>
</clipPath>
</defs>
</svg>
