<svg width="40" height="40" viewBox="0 0 40 40" fill="none" xmlns="http://www.w3.org/2000/svg">
<path d="M27.8667 19.2083L20.2084 26.8667C19.2702 27.8049 17.9977 28.332 16.6709 28.332C15.3441 28.332 14.0716 27.8049 13.1334 26.8667C12.1952 25.9285 11.6681 24.656 11.6681 23.3292C11.6681 22.0024 12.1952 20.7299 13.1334 19.7917L20.7917 12.1333C21.4172 11.5079 22.2655 11.1565 23.15 11.1565C24.0346 11.1565 24.8829 11.5079 25.5084 12.1333C26.1338 12.7588 26.4852 13.6071 26.4852 14.4917C26.4852 15.3762 26.1338 16.2245 25.5084 16.85L17.8417 24.5083C17.529 24.8211 17.1048 24.9968 16.6625 24.9968C16.2203 24.9968 15.7961 24.8211 15.4834 24.5083C15.1706 24.1956 14.9949 23.7715 14.9949 23.3292C14.9949 22.8869 15.1706 22.4627 15.4834 22.15L22.5584 15.0833" stroke="#1BC47D" stroke-width="1.66667" stroke-linecap="round" stroke-linejoin="round"/>
</svg>
