<svg width="40" height="40" viewBox="0 0 40 40" fill="none" xmlns="http://www.w3.org/2000/svg">
<path d="M15 27.5C16.3807 27.5 17.5 26.3807 17.5 25C17.5 23.6193 16.3807 22.5 15 22.5C13.6193 22.5 12.5 23.6193 12.5 25C12.5 26.3807 13.6193 27.5 15 27.5Z" stroke="#7B61FF" stroke-width="1.66667" stroke-linecap="round" stroke-linejoin="round"/>
<path d="M17.5 25V14.1667L27.5 12.5V23.3333" stroke="#7B61FF" stroke-width="1.66667" stroke-linecap="round" stroke-linejoin="round"/>
<path d="M25 25.8333C26.3807 25.8333 27.5 24.714 27.5 23.3333C27.5 21.9525 26.3807 20.8333 25 20.8333C23.6193 20.8333 22.5 21.9525 22.5 23.3333C22.5 24.714 23.6193 25.8333 25 25.8333Z" stroke="#7B61FF" stroke-width="1.66667" stroke-linecap="round" stroke-linejoin="round"/>
</svg>
